<!-- Generator: Adobe Illustrator 18.1.1, SVG Export Plug-In  -->
<svg version="1.1"
   xmlns="http://www.w3.org/2000/svg" xmlns:xlink="http://www.w3.org/1999/xlink" xmlns:a="http://ns.adobe.com/AdobeSVGViewerExtensions/3.0/"
   x="0px" y="0px" width="98.1px" height="92.1px" viewBox="0 0 98.1 92.1" enable-background="new 0 0 98.1 92.1"
   xml:space="preserve">
<defs>
</defs>
<g>
  <path fill="#010101" d="M50.3,57.4c2.5,0.6,5,0.6,7.5,0.6c-0.1,0.5-0.7,0.6-1.2,0.6c-2.3,0-4.6-0.2-6.8-0.7
    c-11.9-2.8-24.3-2.8-36.3-5.1c0.1-0.3,0.5-0.3,0.9-0.3c9.3,1.1,18.5,2.2,27.8,3.3c1.6,0.2,3.1,0.4,4.7,0.7
    C48.1,56.7,49.2,57.1,50.3,57.4z"/>
  <path fill="#010101" d="M49.2,65.8c-1.5,1-3.4,0.7-5.2,0.4c-9.8-1.7-19.5-3.3-29.4-4.7c-0.3,0-0.3-0.4-0.1-0.6
    c0.2-0.2,0.5-0.1,0.7-0.1c9.9,1.6,19.7,3.2,29.6,4.8c2.8,0.5,5.8-0.7,7.6-2.9c0.4,0.9-0.2,2.2-1.2,2.3
    C50.6,64.6,49.9,65.4,49.2,65.8z"/>
  <path fill="#010101" d="M73.1,50.8c0,0.2-0.2,0.5-0.4,0.6C70.9,53,68.9,54.5,67,56c-0.2-0.1-0.2-0.3-0.1-0.5
    c0.1-0.2,0.2-0.3,0.4-0.4C69.1,53.7,71.1,52.2,73.1,50.8z"/>
  <path fill="#010101" d="M88.7,39.6c0.3-0.5,0.8-0.9,1.4-1.2c0.2-0.1,0.4-0.2,0.5-0.1C90.2,39,89.5,39.4,88.7,39.6z"/>
  <path fill="#010101" d="M70.4,48.6c0.5,0,1.1,0.2,1.1,0.7c-18.2-1.2-36.5-2.5-54.7-3.7c-1.2-0.1-2.4-0.2-3.3-1
    c1.8,0.1,3.6,0.3,5.4,0.4c1.5,0.1,2.9,0.2,4.4,0.3C39,46.4,54.7,47.5,70.4,48.6z"/>
  <path fill="#010101" d="M30.5,76.7c0.3-0.1,0.7-0.2,1,0c0.3,0.2,0.3,0.8,0,0.8c-4.9,0-9.7-0.5-14.4-1.6c-0.1,0-0.1,0-0.2-0.1
    c-0.2-0.1-0.1-0.4,0.1-0.5c0.2-0.1,0.4,0,0.6,0c3.8,0.8,7.6,1.4,11.5,1.5C29.6,76.8,30,76.8,30.5,76.7z"/>
  <path fill="#010101" d="M20.9,84.5c-0.9-0.1-1.9-0.2-2.8-0.4c-0.3-0.1-0.7-0.3-0.6-0.6c1.6-0.2,3.1,0.7,4.7,0.3
    C22.2,84.4,21.5,84.6,20.9,84.5z"/>
  <path fill="#010101" d="M14.6,37.7c-0.4,0.3-1,0.2-1.4-0.1c0.4-0.2,0.9-0.2,1.3,0L14.6,37.7z"/>
  <path fill="#010101" d="M5,20c-0.1,0-0.2,0.1-0.3,0.1c-0.2-0.3,0.3-0.7,0.5-0.5C5.2,19.8,5.1,19.9,5,20L5,20z"/>
  <path fill="#010101" d="M98,32.5c-0.8-1.3-3.5-0.7-3.8-2.3c-8.5-3.6-16.9-7.1-25.4-10.7c-2.2-0.9-4.5-1.9-6.8-2.3
    c-8.1-1.5-16.1-4.1-23.5-7.6c-0.5-0.1-1-0.3-1.4-0.6c-4-0.3-7.9-1.7-11.2-4c0,0,0,0,0,0c-0.3-0.1-0.7-0.2-1-0.4
    c-0.1,0.1-0.1,0.1-0.2,0.2c-0.1-0.8-1.4-0.5-2.1,0c0.1-0.3,0.1-0.6,0.2-0.8c-0.2-0.1-0.4-0.2-0.5-0.3c0,0,0,0,0,0
    c-0.8,0-1.4-0.1-2-0.4C19.8,3.2,19.4,3.1,19,3c-3.6-1-7.3-2-10.9-3c0.2,2.5,0.5,5,0.7,7.6C8.9,8.3,9,9.1,8.8,9.8
    c-0.3,0.8-1,1.4-1.7,2c-2.3,1.8-4.7,3.6-7,5.5c2.3,7,10.5,11.5,10.9,18.9c0.9,18.5,2.9,37,6.1,55.3c0.6-0.8,1.5-1.3,2.5-1.6
    c-0.5,0.8-1,1.5-1.5,2.3c2.8-2.4,5.6-4.8,8.4-7.2c-2.8,1.6-5.6,3.1-8.4,4.7c3.5-3.7,7.6-6.8,12.1-9.1c0.4-0.3,0.8-0.5,1.3-0.8
    c0.6-0.4,1.3-1.1,0.8-1.7c-5.2,3.3-10.2,7-14.9,10.9c-0.2-2.9-0.4-5.9-0.6-8.8c2.8,0.7,5.8,0.9,8.7,0.7c-3.7,0-8.4-0.7-9.6-4.2
    c-0.6-1.7-0.2-3.6-0.7-5.3c6.8,0.8,13.7,1.9,20.4,3.5c-0.8,1.3-1.9,2.3-3.2,3.1c1.5,0.3,2.9-0.6,4.1-1.5c4.3-3.2,8.7-6.4,13-9.6
    c-1.1,0.7-2.2,1.4-3.3,2.1c0.4-0.7,0.8-1.3,1.1-2c-3.3,2.7-6.6,5.3-9.9,8c-5.2-1.8-10.6-2.9-16-3.3c-1.7-0.1-3.4-0.1-4.8-1
    c-1.4-0.8-2.4-2.8-1.5-4.2c9.2,1.6,18.5,3.2,27.8,3.5c-9.3-1.3-18.6-2.6-27.8-3.9c-1.1-2.6-1.6-5.4-1.3-8.2
    c7.1,0.1,14.1,0.8,21.1,2.2c4.1,0.8,8.2,1.8,12.3,2.1c2.8,0.2,5.6,0,8.4-0.5c-4.1-1.3-8.6-0.3-12.8-0.7c-2.7-0.3-5.2-1-7.9-1.6
    c-6.7-1.5-13.6-1.8-20.4-2.1c-1,0-1.3-1.3-1.3-2.3l-0.1-6.2c16.6,2,33.1,3.9,49.7,5.6c1.2,0.1,2.4,0.3,3.6,0c1.1-0.3,2.1-1,3.1-1.6
    c4.2-2.9,8.5-6,11.6-10.1c-21.9-1-43.7-3-65.4-6.2c-1.2-0.2-2.4-0.4-3.3-1.1c-0.9-0.8-1.3-2.3-0.4-3.1c22.4,3.7,45,5.2,67.6,6.6
    c1.9,0.1,3.9,0.2,5.7-0.2c-24.7-1.4-49.3-3.7-73.8-6.9c0.1-1.1,0.3-2.2,0.4-3.3c9.5,1.6,19,3.2,28.6,3.3c3.9,0,7.8-0.2,11.7,0
    c3.7,0.1,7.4,0.6,11,1c9.1,1.1,18.2,2.1,27.2,3.2c-2.6,2.6-5.4,4.9-8.4,6.8c5.9-1.4,9.2-8.3,15.1-9.5c-1.1,2.2-3.1,3.8-5.1,5.3
    C79,48.1,66.3,57.9,52.5,66.1c4.2-3.6,8.4-7.3,12.6-10.9c-5.2,2.3-9,6.7-13.2,10.5c-3.4,3.1-7.1,5.8-10.8,8.5
    c-4,2.9-7.9,5.8-11.9,8.8C46,71.7,62.9,60.3,79.7,49c-0.9,0.5-1.9,0.9-2.9,1.1c6.6-4.9,13.1-9.8,19.7-14.7
    C97.5,34.7,98.6,33.5,98,32.5z M67,53.2c-1,0.7-2.4,0.5-3.6,0.4C56,52.8,48.5,52,41.1,51.2c-1.1-0.1-2.3-0.3-3.4-0.4
    c-8-0.9-16-1.7-23.9-2.9c-0.3,0-0.5-0.1-0.7-0.3c-0.2-0.2-0.2-0.4-0.2-0.7c-0.2-2.1-0.5-4.2-0.7-6.3c0-0.3,0.1-0.6,0.3-0.6
    c3.4,0.5,6.9,1,10.3,1.6c5.2,0.8,10.5,1.6,15.7,1.7c3.6,0.1,7.2-0.1,10.9,0c5.7,0.1,11.3,1,16.9,1.8c3.1,0.5,6.2,0.9,9.4,1.4
    C72.9,49.1,70.1,51.3,67,53.2z M12.6,36.3c9.8,1.7,19.6,3.2,29.5,4.1c5.7,0.6,11.4,1,17.1,1.3c6.6,0.5,13.1,0.9,19.7,1.4
    c0.4,0,0.4,0.6,0.2,0.9c-0.5,0.9-1.5,1.5-2.6,1.6c-1,0.2-2.1,0-3.1-0.2c-1.5-0.2-2.9-0.4-4.4-0.7c-8.6-1.3-17.2-2.6-25.9-2.2
    c-5.5,0.3-11-0.5-16.4-1.2c-3.9-0.5-7.8-1.1-11.7-1.6c-0.8-0.1-1.6-0.2-2.2-0.6c-0.7-0.4-1.3-1-1.3-1.8
    C11.5,36.8,12,36.2,12.6,36.3z M33.3,9.6c1.6,0.2,3.1,0.6,4.7,1c4.9,1.4,9.6,3.4,14.1,5.8c-4.5,0.1-9.1,0.9-13.5,1.8
    c-2.2,0.5-4.5,0.4-6.7,0.3c-7-0.3-14-1.1-20.9-2.3c0,0.5,0.6,0.7,1,0.8c8,1.5,16.1,2.2,24.2,2.1c1.7,0,3.3-0.1,4.9-0.6
    c2-0.7,4.1-0.9,6.2-1.2c3.5-0.4,7.1-0.8,10.6-0.1c1.9,0.3,3.7,1,5.6,1.6c3.3,1.1,6.5,2.3,9.8,3.4c0.9,0.3,1.8,0.6,2.7,0.9
    c-2.1,0.7-4.4,0.3-6.6-0.1c-9.7-1.4-19.6-0.8-29.4-0.7c-2.3,0-4.6,0-6.8-0.6c-1.8-0.4-3.6-0.4-5.4-0.4c-5.3,0-10.5-0.3-15.8-0.9
    c-0.4,0-0.7-0.1-1-0.3c-0.5-0.4-0.6-1.1-0.6-1.7c-0.1-1.2-0.1-2.3-0.2-3.5c0-0.3,0-0.7,0.3-0.9c0.2-0.1,0.4-0.1,0.6-0.1
    c4.1-0.1,8.3-0.1,12.4,0.1c1.2,0.1,2.3,0.1,3.5-0.1c4.9-0.8,9.9,0.6,14.8-0.1c0.7-0.1,1.5-0.4,1.4-1.1c-2.6,0.5-5.3,0.7-7.9,0.4
    c-2.4-0.2-4.9-0.1-7.3,0c-5.4,0.2-10.8,0.2-16.2,0c-0.5,0-1.1-0.1-1.5-0.4c-0.6-0.6-0.2-1.6,0.4-2.1c0.7-0.5,1.5-0.5,2.3-0.5
    c2.2-0.1,4.4-0.2,6.6-0.2c3-0.1,6-0.2,9-0.3C30.2,9.5,31.7,9.4,33.3,9.6z M22.4,5.5c1.9-0.5,3.9,0.6,5.6,1.6
    c0.8,0.5,1.6,0.9,2.4,1.4c-0.8,0.8-2.1,0.4-3.3,0.3c-1.8-0.2-3.5,0.5-5.3,0.7C18.3,9.8,14.7,8,11.5,9.3c-0.3,0.1-0.7,0.3-1,0.2
    C10,9.4,9.9,8.7,9.9,8.2c0-0.3,0-0.6,0-0.9c0-0.2,0.1-0.6,0.3-0.5C14.3,6.9,18.4,6.5,22.4,5.5z M9.2,1.3c0.1-0.3,0.5-0.2,0.8,0
    c3.1,2.4,7.3,2.6,11.2,3.2c0.3,0.1,0.8,0.3,0.6,0.6c-0.1,0.1-0.3,0.1-0.4,0.2c-1.1,0.1-2.3,0.2-3.4,0.3c-1.4,0.1-2.7,0.2-4.1,0.2
    c-1.2,0-2.4-0.1-3.6,0.4C9.8,6.2,9.6,5.7,9.5,5.3C9.4,4,9.3,2.7,9.2,1.4C9.2,1.4,9.1,1.3,9.2,1.3z M10.1,30.3
    c-2.3-2.5-4.3-5.2-6-8.1c0.1-0.3,0.2-0.6,0.3-0.8c-1.3,0-2.5-0.9-2.9-2.1c-0.4-1.2,0.1-2.7,1.1-3.4c2-1.4,3.9-2.9,5.9-4.3
    c0.2-0.1,0.4-0.3,0.6-0.1c0.1,0.1,0.1,0.2,0.1,0.3c0.1,0.9-0.1,1.9-0.5,2.7c0.5,0.1,0.8,0.8,0.8,1.3c0,0.6-0.2,1.1-0.2,1.6
    c0,0.7,0.1,1.3,0.2,2c0.5,2.3,0.8,4.6,1.1,6.9C10.8,27.5,10.9,29.1,10.1,30.3z M10.6,22.1c0.1-0.6,0.9-0.7,1.6-0.7l5.6,0.3
    c5,0.2,10.1,0.5,15.1,1c2,0.2,4.1,0.5,6.1,0.4c12.6-0.4,25.1,0,37.6,1.1c3.3,0.3,6.3,1.9,9.2,3.4c1.6,0.9,3.3,1.7,4.9,2.6
    c-10.6-0.3-21.4-0.8-31.6-3.9c-1.6-0.5-3.3-1-5-1c-14,0.5-28.1-0.5-42-2.1C11.4,23.2,10.5,22.8,10.6,22.1z M91.3,34.9
    c-10.7-1.2-21.5-2.4-32.2-3.6c-2.6-0.3-5.1-0.6-7.7-0.7c-4.8-0.1-9.5,0.5-14.3,0.2c-2.1-0.1-4.3-0.4-6.4-0.7
    c-5.2-0.7-10.4-1.4-15.6-2c-1.2-0.2-2.4-0.3-3.3-1.1c-0.9-0.8-1.1-2.4-0.1-3.1c11.9,1.2,23.8,2.4,35.7,2.1c2.6,0,5.2-0.2,7.7,0.2
    c1.8,0.2,3.6,0.7,5.4,1.2c8.2,2,16.7,3.1,25.2,3.1c3.5,0,7.1-0.1,10.1,1.7C94.4,33.4,92.9,34.4,91.3,34.9z"/>
</g>
</svg>
