<!-- Generator: Adobe Illustrator 18.1.0, SVG Export Plug-In  -->
<svg version="1.1"
   xmlns="http://www.w3.org/2000/svg" xmlns:xlink="http://www.w3.org/1999/xlink" xmlns:a="http://ns.adobe.com/AdobeSVGViewerExtensions/3.0/"
   x="0px" y="0px" width="99.2px" height="94.9px" viewBox="0 0 99.2 94.9" enable-background="new 0 0 99.2 94.9"
   xml:space="preserve">
<defs>
</defs>
<g>
  <circle opacity="0.3" fill="#7FA2BE" cx="46.8" cy="46.8" r="45"/>
</g>
<path fill="#8B326B" d="M7.5,94.4c6.1-9.3,18.6-25.6,22.7-47.7c3.5-18.8-5-45.2-4.6-46.7l73.5,46.6L7.5,94.4z"/>
<path fill="#EFD2C6" d="M99.2,46.6L16.1,5.3c0,0,6,23.5,5.7,38.2c-0.5,23.9-9,41.9-14.2,50.9C38.1,78.5,68.6,62.6,99.2,46.6z"/>
<path fill="#F8A680" d="M7.4,13.4c0,0,6.2,21.3,7.3,34.9c1.7,20.8-3.6,37.3-7.2,46.2c30.5-15.9,61.1-31.9,91.6-47.8L7.4,13.4z"/>
<path fill="#7FA2BE" d="M0,23.9c0,0,7.7,16.2,10.5,29.9c4,19-0.7,34.5-3.1,41.1C38,78.8,68.6,62.7,99.2,46.6L0,23.9z"/>
</svg>
