<svg width="1226" height="755" xmlns="http://www.w3.org/2000/svg"><g><path d="M-133,-108L-102,506L-93,118Z" fill="#f6a887" stroke="#f6a887" fill-opacity="1" stroke-opacity="1"/><path d="M-133,-108L-93,118L51,-76Z" fill="#f78b5b" stroke="#f78b5b" fill-opacity="1" stroke-opacity="1"/><path d="M-133,-108L51,-76L381,-114Z" fill="#f89363" stroke="#f89363" fill-opacity="1" stroke-opacity="1"/><path d="M-133,-108L381,-114L1122,-131Z" fill="#f3b493" stroke="#f3b493" fill-opacity="1" stroke-opacity="1"/><path d="M51,-76L-93,118L126,123Z" fill="#f8a580" stroke="#f8a580" fill-opacity="1" stroke-opacity="1"/><path d="M51,-76L126,123L219,55Z" fill="#f9af8d" stroke="#f9af8d" fill-opacity="1" stroke-opacity="1"/><path d="M51,-76L219,55L253,-25Z" fill="#f9ab88" stroke="#f9ab88" fill-opacity="1" stroke-opacity="1"/><path d="M51,-76L253,-25L381,-114Z" fill="#f9a982" stroke="#f9a982" fill-opacity="1" stroke-opacity="1"/><path d="M253,-25L219,55L320,76Z" fill="#fac1a5" stroke="#fac1a5" fill-opacity="1" stroke-opacity="1"/><path d="M253,-25L320,76L381,-114Z" fill="#fabea0" stroke="#fabea0" fill-opacity="1" stroke-opacity="1"/><path d="M381,-114L320,76L481,-17Z" fill="#fbc8af" stroke="#fbc8af" fill-opacity="1" stroke-opacity="1"/><path d="M381,-114L481,-17L700,-68Z" fill="#e8b79f" stroke="#e8b79f" fill-opacity="1" stroke-opacity="1"/><path d="M381,-114L700,-68L768,-113Z" fill="#d7a891" stroke="#d7a891" fill-opacity="1" stroke-opacity="1"/><path d="M381,-114L768,-113L1122,-131Z" fill="#be9785" stroke="#be9785" fill-opacity="1" stroke-opacity="1"/><path d="M481,-17L320,76L475,186Z" fill="#f8dbcc" stroke="#f8dbcc" fill-opacity="1" stroke-opacity="1"/><path d="M481,-17L475,186L577,22Z" fill="#e9cfc3" stroke="#e9cfc3" fill-opacity="1" stroke-opacity="1"/><path d="M481,-17L577,22L700,-68Z" fill="#dcb9a8" stroke="#dcb9a8" fill-opacity="1" stroke-opacity="1"/><path d="M700,-68L577,22L702,27Z" fill="#cfb5a8" stroke="#cfb5a8" fill-opacity="1" stroke-opacity="1"/><path d="M700,-68L702,27L770,54Z" fill="#c4b1a8" stroke="#c4b1a8" fill-opacity="1" stroke-opacity="1"/><path d="M700,-68L770,54L768,-113Z" fill="#c0a69a" stroke="#c0a69a" fill-opacity="1" stroke-opacity="1"/><path d="M768,-113L770,54L973,59Z" fill="#b0a5a1" stroke="#b0a5a1" fill-opacity="1" stroke-opacity="1"/><path d="M768,-113L973,59L1012,-97Z" fill="#a2948f" stroke="#a2948f" fill-opacity="1" stroke-opacity="1"/><path d="M768,-113L1012,-97L1122,-131Z" fill="#99847c" stroke="#99847c" fill-opacity="1" stroke-opacity="1"/><path d="M1012,-97L973,59L1093,93Z" fill="#8e969d" stroke="#8e969d" fill-opacity="1" stroke-opacity="1"/><path d="M1012,-97L1093,93L1122,-131Z" fill="#868689" stroke="#868689" fill-opacity="1" stroke-opacity="1"/><path d="M1122,-131L1093,93L1219,104Z" fill="#808c98" stroke="#808c98" fill-opacity="1" stroke-opacity="1"/><path d="M1122,-131L1219,104L1317,-121Z" fill="#807781" stroke="#807781" fill-opacity="1" stroke-opacity="1"/><path d="M1317,-121L1219,104L1386,-112Z" fill="#80707e" stroke="#80707e" fill-opacity="1" stroke-opacity="1"/><path d="M1386,-112L1219,104L1442,125Z" fill="#807b93" stroke="#807b93" fill-opacity="1" stroke-opacity="1"/><path d="M-93,118L-102,506L-71,324Z" fill="#e5b2a0" stroke="#e5b2a0" fill-opacity="1" stroke-opacity="1"/><path d="M-93,118L-71,324L-55,240Z" fill="#f7b79d" stroke="#f7b79d" fill-opacity="1" stroke-opacity="1"/><path d="M-93,118L-55,240L35,180Z" fill="#f7b396" stroke="#f7b396" fill-opacity="1" stroke-opacity="1"/><path d="M-93,118L35,180L126,123Z" fill="#f7b496" stroke="#f7b496" fill-opacity="1" stroke-opacity="1"/><path d="M126,123L35,180L214,275Z" fill="#f8cbb8" stroke="#f8cbb8" fill-opacity="1" stroke-opacity="1"/><path d="M126,123L214,275L219,55Z" fill="#f9ccb7" stroke="#f9ccb7" fill-opacity="1" stroke-opacity="1"/><path d="M219,55L214,275L320,76Z" fill="#fad1bf" stroke="#fad1bf" fill-opacity="1" stroke-opacity="1"/><path d="M320,76L214,275L387,247Z" fill="#fae4da" stroke="#fae4da" fill-opacity="1" stroke-opacity="1"/><path d="M320,76L387,247L475,186Z" fill="#fbeae2" stroke="#fbeae2" fill-opacity="1" stroke-opacity="1"/><path d="M577,22L475,186L712,188Z" fill="#dcd5d1" stroke="#dcd5d1" fill-opacity="1" stroke-opacity="1"/><path d="M577,22L712,188L702,27Z" fill="#cec4bf" stroke="#cec4bf" fill-opacity="1" stroke-opacity="1"/><path d="M702,27L712,188L770,54Z" fill="#c3bfbf" stroke="#c3bfbf" fill-opacity="1" stroke-opacity="1"/><path d="M770,54L712,188L827,223Z" fill="#bcc7cf" stroke="#bcc7cf" fill-opacity="1" stroke-opacity="1"/><path d="M770,54L827,223L973,59Z" fill="#acb7bf" stroke="#acb7bf" fill-opacity="1" stroke-opacity="1"/><path d="M973,59L827,223L967,183Z" fill="#a1b9c8" stroke="#a1b9c8" fill-opacity="1" stroke-opacity="1"/><path d="M973,59L967,183L1093,93Z" fill="#91a8b7" stroke="#91a8b7" fill-opacity="1" stroke-opacity="1"/><path d="M1093,93L967,183L1101,220Z" fill="#8aaec4" stroke="#8aaec4" fill-opacity="1" stroke-opacity="1"/><path d="M1093,93L1101,220L1219,104Z" fill="#80a1b9" stroke="#80a1b9" fill-opacity="1" stroke-opacity="1"/><path d="M1219,104L1101,220L1241,182Z" fill="#80a2be" stroke="#80a2be" fill-opacity="1" stroke-opacity="1"/><path d="M1219,104L1241,182L1442,125Z" fill="#8092b0" stroke="#8092b0" fill-opacity="1" stroke-opacity="1"/><path d="M1442,125L1241,182L1411,237Z" fill="#8094b9" stroke="#8094b9" fill-opacity="1" stroke-opacity="1"/><path d="M1442,125L1411,237L1477,377Z" fill="#8098c7" stroke="#8098c7" fill-opacity="1" stroke-opacity="1"/><path d="M-55,240L-71,324L117,404Z" fill="#e5bdaf" stroke="#e5bdaf" fill-opacity="1" stroke-opacity="1"/><path d="M-55,240L117,404L35,180Z" fill="#f2c7b6" stroke="#f2c7b6" fill-opacity="1" stroke-opacity="1"/><path d="M35,180L117,404L214,275Z" fill="#efd2c6" stroke="#efd2c6" fill-opacity="1" stroke-opacity="1"/><path d="M214,275L117,404L171,415Z" fill="#dbcfcd" stroke="#dbcfcd" fill-opacity="1" stroke-opacity="1"/><path d="M214,275L171,415L316,333Z" fill="#e2dada" stroke="#e2dada" fill-opacity="1" stroke-opacity="1"/><path d="M214,275L316,333L387,247Z" fill="#f2eae8" stroke="#f2eae8" fill-opacity="1" stroke-opacity="1"/><path d="M387,247L316,333L486,344Z" fill="#ecf4f8" stroke="#ecf4f8" fill-opacity="1" stroke-opacity="1"/><path d="M387,247L486,344L475,186Z" fill="#f2f6f9" stroke="#f2f6f9" fill-opacity="1" stroke-opacity="1"/><path d="M475,186L486,344L656,345Z" fill="#daeaf4" stroke="#daeaf4" fill-opacity="1" stroke-opacity="1"/><path d="M475,186L656,345L712,188Z" fill="#d7e6ee" stroke="#d7e6ee" fill-opacity="1" stroke-opacity="1"/><path d="M712,188L656,345L823,331Z" fill="#b9d9eb" stroke="#b9d9eb" fill-opacity="1" stroke-opacity="1"/><path d="M712,188L823,331L827,223Z" fill="#b9d6e8" stroke="#b9d6e8" fill-opacity="1" stroke-opacity="1"/><path d="M827,223L823,331L967,183Z" fill="#aacee3" stroke="#aacee3" fill-opacity="1" stroke-opacity="1"/><path d="M967,183L823,331L1024,434Z" fill="#8dc2e0" stroke="#8dc2e0" fill-opacity="1" stroke-opacity="1"/><path d="M967,183L1024,434L1101,220Z" fill="#87bddc" stroke="#87bddc" fill-opacity="1" stroke-opacity="1"/><path d="M1101,220L1024,434L1124,364Z" fill="#6db1d9" stroke="#6db1d9" fill-opacity="1" stroke-opacity="1"/><path d="M1101,220L1124,364L1248,324Z" fill="#72aed6" stroke="#72aed6" fill-opacity="1" stroke-opacity="1"/><path d="M1101,220L1248,324L1241,182Z" fill="#80afd2" stroke="#80afd2" fill-opacity="1" stroke-opacity="1"/><path d="M1241,182L1248,324L1411,237Z" fill="#80a6cf" stroke="#80a6cf" fill-opacity="1" stroke-opacity="1"/><path d="M1411,237L1248,324L1477,377Z" fill="#7098cb" stroke="#7098cb" fill-opacity="1" stroke-opacity="1"/><path d="M-71,324L-102,506L35,496Z" fill="#c5aaa5" stroke="#c5aaa5" fill-opacity="1" stroke-opacity="1"/><path d="M-71,324L35,496L117,404Z" fill="#cfb7b3" stroke="#cfb7b3" fill-opacity="1" stroke-opacity="1"/><path d="M117,404L35,496L171,415Z" fill="#c7bfc1" stroke="#c7bfc1" fill-opacity="1" stroke-opacity="1"/><path d="M171,415L35,496L214,529Z" fill="#bdbfc7" stroke="#bdbfc7" fill-opacity="1" stroke-opacity="1"/><path d="M171,415L214,529L316,333Z" fill="#ccd1d8" stroke="#ccd1d8" fill-opacity="1" stroke-opacity="1"/><path d="M316,333L214,529L426,537Z" fill="#c2d8e7" stroke="#c2d8e7" fill-opacity="1" stroke-opacity="1"/><path d="M316,333L426,537L486,344Z" fill="#d3ebf9" stroke="#d3ebf9" fill-opacity="1" stroke-opacity="1"/><path d="M486,344L426,537L540,486Z" fill="#b8def5" stroke="#b8def5" fill-opacity="1" stroke-opacity="1"/><path d="M486,344L540,486L656,345Z" fill="#bcdef2" stroke="#bcdef2" fill-opacity="1" stroke-opacity="1"/><path d="M656,345L540,486L709,469Z" fill="#a4d2ed" stroke="#a4d2ed" fill-opacity="1" stroke-opacity="1"/><path d="M656,345L709,469L823,331Z" fill="#a1cfea" stroke="#a1cfea" fill-opacity="1" stroke-opacity="1"/><path d="M823,331L709,469L806,501Z" fill="#8ac4e6" stroke="#8ac4e6" fill-opacity="1" stroke-opacity="1"/><path d="M823,331L806,501L964,495Z" fill="#79bbe2" stroke="#79bbe2" fill-opacity="1" stroke-opacity="1"/><path d="M823,331L964,495L1024,434Z" fill="#72b7df" stroke="#72b7df" fill-opacity="1" stroke-opacity="1"/><path d="M1024,434L964,495L1094,486Z" fill="#55a9d9" stroke="#55a9d9" fill-opacity="1" stroke-opacity="1"/><path d="M1024,434L1094,486L1124,364Z" fill="#57a8d7" stroke="#57a8d7" fill-opacity="1" stroke-opacity="1"/><path d="M1124,364L1094,486L1328,511Z" fill="#4b9cd2" stroke="#4b9cd2" fill-opacity="1" stroke-opacity="1"/><path d="M1124,364L1328,511L1248,324Z" fill="#599dd0" stroke="#599dd0" fill-opacity="1" stroke-opacity="1"/><path d="M1248,324L1328,511L1477,377Z" fill="#5891cb" stroke="#5891cb" fill-opacity="1" stroke-opacity="1"/><path d="M1477,377L1328,511L1369,552Z" fill="#4485c8" stroke="#4485c8" fill-opacity="1" stroke-opacity="1"/><path d="M1477,377L1369,552L1401,706Z" fill="#337cc5" stroke="#337cc5" fill-opacity="1" stroke-opacity="1"/><path d="M1477,377L1401,706L1440,963Z" fill="#0f6bc2" stroke="#0f6bc2" fill-opacity="1" stroke-opacity="1"/><path d="M-102,506L-43,958L-64,766Z" fill="#77879c" stroke="#77879c" fill-opacity="1" stroke-opacity="1"/><path d="M-102,506L-64,766L-27,674Z" fill="#8f929f" stroke="#8f929f" fill-opacity="1" stroke-opacity="1"/><path d="M-102,506L-27,674L35,496Z" fill="#a6a0a6" stroke="#a6a0a6" fill-opacity="1" stroke-opacity="1"/><path d="M35,496L-27,674L98,686Z" fill="#98a2b1" stroke="#98a2b1" fill-opacity="1" stroke-opacity="1"/><path d="M35,496L98,686L214,529Z" fill="#a5b2c1" stroke="#a5b2c1" fill-opacity="1" stroke-opacity="1"/><path d="M214,529L98,686L183,717Z" fill="#92b1c9" stroke="#92b1c9" fill-opacity="1" stroke-opacity="1"/><path d="M214,529L183,717L319,644Z" fill="#97bcd6" stroke="#97bcd6" fill-opacity="1" stroke-opacity="1"/><path d="M214,529L319,644L426,537Z" fill="#a7cde6" stroke="#a7cde6" fill-opacity="1" stroke-opacity="1"/><path d="M426,537L319,644L526,657Z" fill="#9ad3f5" stroke="#9ad3f5" fill-opacity="1" stroke-opacity="1"/><path d="M426,537L526,657L540,486Z" fill="#9bd2f2" stroke="#9bd2f2" fill-opacity="1" stroke-opacity="1"/><path d="M540,486L526,657L698,644Z" fill="#82c5ed" stroke="#82c5ed" fill-opacity="1" stroke-opacity="1"/><path d="M540,486L698,644L709,469Z" fill="#87c6eb" stroke="#87c6eb" fill-opacity="1" stroke-opacity="1"/><path d="M709,469L698,644L806,501Z" fill="#76bde7" stroke="#76bde7" fill-opacity="1" stroke-opacity="1"/><path d="M806,501L698,644L811,672Z" fill="#5eb3e4" stroke="#5eb3e4" fill-opacity="1" stroke-opacity="1"/><path d="M806,501L811,672L920,662Z" fill="#50abe0" stroke="#50abe0" fill-opacity="1" stroke-opacity="1"/><path d="M806,501L920,662L964,495Z" fill="#56acde" stroke="#56acde" fill-opacity="1" stroke-opacity="1"/><path d="M964,495L920,662L1094,486Z" fill="#47a4da" stroke="#47a4da" fill-opacity="1" stroke-opacity="1"/><path d="M1094,486L920,662L1184,726Z" fill="#2595d5" stroke="#2595d5" fill-opacity="1" stroke-opacity="1"/><path d="M1094,486L1184,726L1316,622Z" fill="#2189cf" stroke="#2189cf" fill-opacity="1" stroke-opacity="1"/><path d="M1094,486L1316,622L1328,511Z" fill="#348cce" stroke="#348cce" fill-opacity="1" stroke-opacity="1"/><path d="M1328,511L1316,622L1369,552Z" fill="#2e81c9" stroke="#2e81c9" fill-opacity="1" stroke-opacity="1"/><path d="M1369,552L1316,622L1401,706Z" fill="#1d78c7" stroke="#1d78c7" fill-opacity="1" stroke-opacity="1"/><path d="M-27,674L-64,766L41,788Z" fill="#788ea6" stroke="#788ea6" fill-opacity="1" stroke-opacity="1"/><path d="M-27,674L41,788L98,686Z" fill="#7e98b0" stroke="#7e98b0" fill-opacity="1" stroke-opacity="1"/><path d="M98,686L41,788L183,717Z" fill="#7ba0bd" stroke="#7ba0bd" fill-opacity="1" stroke-opacity="1"/><path d="M183,717L41,788L270,847Z" fill="#79a2c6" stroke="#79a2c6" fill-opacity="1" stroke-opacity="1"/><path d="M183,717L270,847L319,644Z" fill="#7bb3d8" stroke="#7bb3d8" fill-opacity="1" stroke-opacity="1"/><path d="M319,644L270,847L363,874Z" fill="#7bb6e2" stroke="#7bb6e2" fill-opacity="1" stroke-opacity="1"/><path d="M319,644L363,874L526,657Z" fill="#7fc7f3" stroke="#7fc7f3" fill-opacity="1" stroke-opacity="1"/><path d="M526,657L363,874L484,875Z" fill="#73bcf0" stroke="#73bcf0" fill-opacity="1" stroke-opacity="1"/><path d="M526,657L484,875L625,842Z" fill="#64b4ec" stroke="#64b4ec" fill-opacity="1" stroke-opacity="1"/><path d="M526,657L625,842L698,644Z" fill="#5db6ea" stroke="#5db6ea" fill-opacity="1" stroke-opacity="1"/><path d="M698,644L625,842L771,792Z" fill="#49a9e5" stroke="#49a9e5" fill-opacity="1" stroke-opacity="1"/><path d="M698,644L771,792L811,672Z" fill="#47a9e3" stroke="#47a9e3" fill-opacity="1" stroke-opacity="1"/><path d="M811,672L771,792L920,662Z" fill="#38a2df" stroke="#38a2df" fill-opacity="1" stroke-opacity="1"/><path d="M920,662L771,792L990,789Z" fill="#2698dc" stroke="#2698dc" fill-opacity="1" stroke-opacity="1"/><path d="M920,662L990,789L1184,726Z" fill="#118dd5" stroke="#118dd5" fill-opacity="1" stroke-opacity="1"/><path d="M1184,726L990,789L1066,824Z" fill="#0583d2" stroke="#0583d2" fill-opacity="1" stroke-opacity="1"/><path d="M1184,726L1066,824L1311,848Z" fill="#0076cd" stroke="#0076cd" fill-opacity="1" stroke-opacity="1"/><path d="M1184,726L1311,848L1401,706Z" fill="#0070c8" stroke="#0070c8" fill-opacity="1" stroke-opacity="1"/><path d="M1184,726L1401,706L1316,622Z" fill="#0e78c9" stroke="#0e78c9" fill-opacity="1" stroke-opacity="1"/><path d="M1401,706L1311,848L1384,815Z" fill="#0066c4" stroke="#0066c4" fill-opacity="1" stroke-opacity="1"/><path d="M1401,706L1384,815L1440,963Z" fill="#005ec1" stroke="#005ec1" fill-opacity="1" stroke-opacity="1"/><path d="M-64,766L-43,958L41,788Z" fill="#7883a3" stroke="#7883a3" fill-opacity="1" stroke-opacity="1"/><path d="M41,788L-43,958L92,973Z" fill="#7883ac" stroke="#7883ac" fill-opacity="1" stroke-opacity="1"/><path d="M41,788L92,973L270,847Z" fill="#7994bf" stroke="#7994bf" fill-opacity="1" stroke-opacity="1"/><path d="M270,847L92,973L203,985Z" fill="#7a94c8" stroke="#7a94c8" fill-opacity="1" stroke-opacity="1"/><path d="M270,847L203,985L349,978Z" fill="#7aa0d8" stroke="#7aa0d8" fill-opacity="1" stroke-opacity="1"/><path d="M270,847L349,978L363,874Z" fill="#7babe2" stroke="#7babe2" fill-opacity="1" stroke-opacity="1"/><path d="M363,874L349,978L484,875Z" fill="#7cb3ef" stroke="#7cb3ef" fill-opacity="1" stroke-opacity="1"/><path d="M484,875L349,978L570,1033Z" fill="#71aaed" stroke="#71aaed" fill-opacity="1" stroke-opacity="1"/><path d="M484,875L570,1033L656,954Z" fill="#5fa0e8" stroke="#5fa0e8" fill-opacity="1" stroke-opacity="1"/><path d="M484,875L656,954L625,842Z" fill="#5ca6e8" stroke="#5ca6e8" fill-opacity="1" stroke-opacity="1"/><path d="M625,842L656,954L771,792Z" fill="#4b9fe4" stroke="#4b9fe4" fill-opacity="1" stroke-opacity="1"/><path d="M771,792L656,954L821,939Z" fill="#4096e1" stroke="#4096e1" fill-opacity="1" stroke-opacity="1"/><path d="M771,792L821,939L990,789Z" fill="#2c91dc" stroke="#2c91dc" fill-opacity="1" stroke-opacity="1"/><path d="M990,789L821,939L936,967Z" fill="#2285d8" stroke="#2285d8" fill-opacity="1" stroke-opacity="1"/><path d="M990,789L936,967L1066,824Z" fill="#1482d5" stroke="#1482d5" fill-opacity="1" stroke-opacity="1"/><path d="M1066,824L936,967L1100,1023Z" fill="#0e76d2" stroke="#0e76d2" fill-opacity="1" stroke-opacity="1"/><path d="M1066,824L1100,1023L1231,1009Z" fill="#006bcd" stroke="#006bcd" fill-opacity="1" stroke-opacity="1"/><path d="M1066,824L1231,1009L1311,848Z" fill="#006aca" stroke="#006aca" fill-opacity="1" stroke-opacity="1"/><path d="M1311,848L1231,1009L1440,963Z" fill="#005ac3" stroke="#005ac3" fill-opacity="1" stroke-opacity="1"/><path d="M1311,848L1440,963L1384,815Z" fill="#005cc2" stroke="#005cc2" fill-opacity="1" stroke-opacity="1"/><path d="M-43,958L570,1033L92,973Z" fill="#7a91cb" stroke="#7a91cb" fill-opacity="1" stroke-opacity="1"/><path d="M92,973L570,1033L203,985Z" fill="#7b9bd9" stroke="#7b9bd9" fill-opacity="1" stroke-opacity="1"/><path d="M203,985L570,1033L349,978Z" fill="#7ba7e9" stroke="#7ba7e9" fill-opacity="1" stroke-opacity="1"/><path d="M570,1033L1100,1023L936,967Z" fill="#2b7ed9" stroke="#2b7ed9" fill-opacity="1" stroke-opacity="1"/><path d="M570,1033L936,967L821,939Z" fill="#3b8ade" stroke="#3b8ade" fill-opacity="1" stroke-opacity="1"/><path d="M570,1033L821,939L656,954Z" fill="#4c94e2" stroke="#4c94e2" fill-opacity="1" stroke-opacity="1"/></g></svg>