<svg width="1215" height="766" xmlns="http://www.w3.org/2000/svg"><g><path d="M-118,-46L-123,335L-111,281Z" fill="#ba5443" stroke="#ba5443" fill-opacity="1" stroke-opacity="1"/><path d="M-118,-46L-111,281L-82,98Z" fill="#bd2d31" stroke="#bd2d31" fill-opacity="1" stroke-opacity="1"/><path d="M-118,-46L-82,98L87,-69Z" fill="#ab002a" stroke="#ab002a" fill-opacity="1" stroke-opacity="1"/><path d="M-118,-46L87,-69L225,-135Z" fill="#a30d2a" stroke="#a30d2a" fill-opacity="1" stroke-opacity="1"/><path d="M87,-69L-82,98L118,120Z" fill="#d11b2a" stroke="#d11b2a" fill-opacity="1" stroke-opacity="1"/><path d="M87,-69L118,120L201,116Z" fill="#e5302c" stroke="#e5302c" fill-opacity="1" stroke-opacity="1"/><path d="M87,-69L201,116L225,-135Z" fill="#c92530" stroke="#c92530" fill-opacity="1" stroke-opacity="1"/><path d="M225,-135L201,116L399,89Z" fill="#e7483c" stroke="#e7483c" fill-opacity="1" stroke-opacity="1"/><path d="M225,-135L399,89L354,-132Z" fill="#c94d42" stroke="#c94d42" fill-opacity="1" stroke-opacity="1"/><path d="M354,-132L399,89L546,-84Z" fill="#d26554" stroke="#d26554" fill-opacity="1" stroke-opacity="1"/><path d="M354,-132L546,-84L818,-120Z" fill="#ad7783" stroke="#ad7783" fill-opacity="1" stroke-opacity="1"/><path d="M354,-132L818,-120L1332,-109Z" fill="#735a80" stroke="#735a80" fill-opacity="1" stroke-opacity="1"/><path d="M546,-84L399,89L543,27Z" fill="#e57563" stroke="#e57563" fill-opacity="1" stroke-opacity="1"/><path d="M546,-84L543,27L710,28Z" fill="#d0798f" stroke="#d0798f" fill-opacity="1" stroke-opacity="1"/><path d="M546,-84L710,28L715,-82Z" fill="#b6748f" stroke="#b6748f" fill-opacity="1" stroke-opacity="1"/><path d="M546,-84L715,-82L818,-120Z" fill="#9c718d" stroke="#9c718d" fill-opacity="1" stroke-opacity="1"/><path d="M715,-82L710,28L827,19Z" fill="#af6989" stroke="#af6989" fill-opacity="1" stroke-opacity="1"/><path d="M715,-82L827,19L818,-120Z" fill="#946285" stroke="#946285" fill-opacity="1" stroke-opacity="1"/><path d="M818,-120L827,19L974,24Z" fill="#8f527d" stroke="#8f527d" fill-opacity="1" stroke-opacity="1"/><path d="M818,-120L974,24L1007,-29Z" fill="#7d4475" stroke="#7d4475" fill-opacity="1" stroke-opacity="1"/><path d="M818,-120L1007,-29L1111,-92Z" fill="#66396f" stroke="#66396f" fill-opacity="1" stroke-opacity="1"/><path d="M818,-120L1111,-92L1332,-109Z" fill="#531d62" stroke="#531d62" fill-opacity="1" stroke-opacity="1"/><path d="M1007,-29L974,24L1069,85Z" fill="#8c396b" stroke="#8c396b" fill-opacity="1" stroke-opacity="1"/><path d="M1007,-29L1069,85L1111,-92Z" fill="#792365" stroke="#792365" fill-opacity="1" stroke-opacity="1"/><path d="M1111,-92L1069,85L1235,79Z" fill="#81195c" stroke="#81195c" fill-opacity="1" stroke-opacity="1"/><path d="M1111,-92L1235,79L1332,-109Z" fill="#610050" stroke="#610050" fill-opacity="1" stroke-opacity="1"/><path d="M1332,-109L1235,79L1426,42Z" fill="#690243" stroke="#690243" fill-opacity="1" stroke-opacity="1"/><path d="M1332,-109L1426,42L1449,-45Z" fill="#55003a" stroke="#55003a" fill-opacity="1" stroke-opacity="1"/><path d="M1449,-45L1426,42L1455,229Z" fill="#7f1c35" stroke="#7f1c35" fill-opacity="1" stroke-opacity="1"/><path d="M1449,-45L1455,229L1472,505Z" fill="#806856" stroke="#806856" fill-opacity="1" stroke-opacity="1"/><path d="M-82,98L-111,281L19,238Z" fill="#c65c47" stroke="#c65c47" fill-opacity="1" stroke-opacity="1"/><path d="M-82,98L19,238L118,120Z" fill="#d6443b" stroke="#d6443b" fill-opacity="1" stroke-opacity="1"/><path d="M118,120L19,238L265,225Z" fill="#ed7147" stroke="#ed7147" fill-opacity="1" stroke-opacity="1"/><path d="M118,120L265,225L201,116Z" fill="#f46c44" stroke="#f46c44" fill-opacity="1" stroke-opacity="1"/><path d="M201,116L265,225L399,89Z" fill="#fb7f4d" stroke="#fb7f4d" fill-opacity="1" stroke-opacity="1"/><path d="M399,89L265,225L364,250Z" fill="#fda45e" stroke="#fda45e" fill-opacity="1" stroke-opacity="1"/><path d="M399,89L364,250L555,215Z" fill="#ffb86e" stroke="#ffb86e" fill-opacity="1" stroke-opacity="1"/><path d="M399,89L555,215L543,27Z" fill="#fd9e6c" stroke="#fd9e6c" fill-opacity="1" stroke-opacity="1"/><path d="M543,27L555,215L710,28Z" fill="#f09c94" stroke="#f09c94" fill-opacity="1" stroke-opacity="1"/><path d="M710,28L555,215L730,205Z" fill="#e3b3a0" stroke="#e3b3a0" fill-opacity="1" stroke-opacity="1"/><path d="M710,28L730,205L804,189Z" fill="#d1a498" stroke="#d1a498" fill-opacity="1" stroke-opacity="1"/><path d="M710,28L804,189L827,19Z" fill="#ca8187" stroke="#ca8187" fill-opacity="1" stroke-opacity="1"/><path d="M827,19L804,189L954,200Z" fill="#b88d8b" stroke="#b88d8b" fill-opacity="1" stroke-opacity="1"/><path d="M827,19L954,200L974,24Z" fill="#ad6679" stroke="#ad6679" fill-opacity="1" stroke-opacity="1"/><path d="M974,24L954,200L1069,85Z" fill="#a05d74" stroke="#a05d74" fill-opacity="1" stroke-opacity="1"/><path d="M1069,85L954,200L1151,171Z" fill="#9b6577" stroke="#9b6577" fill-opacity="1" stroke-opacity="1"/><path d="M1069,85L1151,171L1235,79Z" fill="#933962" stroke="#933962" fill-opacity="1" stroke-opacity="1"/><path d="M1235,79L1151,171L1300,214Z" fill="#8d4262" stroke="#8d4262" fill-opacity="1" stroke-opacity="1"/><path d="M1235,79L1300,214L1426,42Z" fill="#862d4d" stroke="#862d4d" fill-opacity="1" stroke-opacity="1"/><path d="M1426,42L1300,214L1455,229Z" fill="#80464e" stroke="#80464e" fill-opacity="1" stroke-opacity="1"/><path d="M-111,281L-123,335L43,343Z" fill="#c58070" stroke="#c58070" fill-opacity="1" stroke-opacity="1"/><path d="M-111,281L43,343L19,238Z" fill="#cf7a62" stroke="#cf7a62" fill-opacity="1" stroke-opacity="1"/><path d="M19,238L43,343L167,386Z" fill="#e28f72" stroke="#e28f72" fill-opacity="1" stroke-opacity="1"/><path d="M19,238L167,386L265,225Z" fill="#ef9765" stroke="#ef9765" fill-opacity="1" stroke-opacity="1"/><path d="M265,225L167,386L364,250Z" fill="#fbb674" stroke="#fbb674" fill-opacity="1" stroke-opacity="1"/><path d="M364,250L167,386L410,397Z" fill="#fcc995" stroke="#fcc995" fill-opacity="1" stroke-opacity="1"/><path d="M364,250L410,397L555,215Z" fill="#ffe18f" stroke="#ffe18f" fill-opacity="1" stroke-opacity="1"/><path d="M555,215L410,397L575,408Z" fill="#fbf2bc" stroke="#fbf2bc" fill-opacity="1" stroke-opacity="1"/><path d="M555,215L575,408L655,352Z" fill="#f1f8d7" stroke="#f1f8d7" fill-opacity="1" stroke-opacity="1"/><path d="M555,215L655,352L730,205Z" fill="#e7e6bd" stroke="#e7e6bd" fill-opacity="1" stroke-opacity="1"/><path d="M730,205L655,352L873,340Z" fill="#d0e5c5" stroke="#d0e5c5" fill-opacity="1" stroke-opacity="1"/><path d="M730,205L873,340L804,189Z" fill="#c5cbad" stroke="#c5cbad" fill-opacity="1" stroke-opacity="1"/><path d="M804,189L873,340L954,200Z" fill="#b5bca4" stroke="#b5bca4" fill-opacity="1" stroke-opacity="1"/><path d="M954,200L873,340L976,384Z" fill="#aac3b6" stroke="#aac3b6" fill-opacity="1" stroke-opacity="1"/><path d="M954,200L976,384L1151,171Z" fill="#9e9b95" stroke="#9e9b95" fill-opacity="1" stroke-opacity="1"/><path d="M1151,171L976,384L1144,428Z" fill="#999cad" stroke="#999cad" fill-opacity="1" stroke-opacity="1"/><path d="M1151,171L1144,428L1238,318Z" fill="#918596" stroke="#918596" fill-opacity="1" stroke-opacity="1"/><path d="M1151,171L1238,318L1300,214Z" fill="#8d6974" stroke="#8d6974" fill-opacity="1" stroke-opacity="1"/><path d="M1300,214L1238,318L1425,398Z" fill="#868086" stroke="#868086" fill-opacity="1" stroke-opacity="1"/><path d="M1300,214L1425,398L1455,229Z" fill="#807871" stroke="#807871" fill-opacity="1" stroke-opacity="1"/><path d="M1455,229L1425,398L1472,505Z" fill="#80809a" stroke="#80809a" fill-opacity="1" stroke-opacity="1"/><path d="M-123,335L-90,1033L-100,514Z" fill="#643f7b" stroke="#643f7b" fill-opacity="1" stroke-opacity="1"/><path d="M-123,335L-100,514L43,343Z" fill="#c18093" stroke="#c18093" fill-opacity="1" stroke-opacity="1"/><path d="M43,343L-100,514L49,520Z" fill="#b88093" stroke="#b88093" fill-opacity="1" stroke-opacity="1"/><path d="M43,343L49,520L167,386Z" fill="#d99193" stroke="#d99193" fill-opacity="1" stroke-opacity="1"/><path d="M167,386L49,520L183,540Z" fill="#ca9494" stroke="#ca9494" fill-opacity="1" stroke-opacity="1"/><path d="M167,386L183,540L410,397Z" fill="#e7b9a3" stroke="#e7b9a3" fill-opacity="1" stroke-opacity="1"/><path d="M410,397L183,540L384,554Z" fill="#d3c0aa" stroke="#d3c0aa" fill-opacity="1" stroke-opacity="1"/><path d="M410,397L384,554L477,575Z" fill="#d0d3ba" stroke="#d0d3ba" fill-opacity="1" stroke-opacity="1"/><path d="M410,397L477,575L575,408Z" fill="#e5f0c8" stroke="#e5f0c8" fill-opacity="1" stroke-opacity="1"/><path d="M575,408L477,575L525,622Z" fill="#c0dbd6" stroke="#c0dbd6" fill-opacity="1" stroke-opacity="1"/><path d="M575,408L525,622L693,578Z" fill="#b6e0f5" stroke="#b6e0f5" fill-opacity="1" stroke-opacity="1"/><path d="M575,408L693,578L655,352Z" fill="#d3f6fa" stroke="#d3f6fa" fill-opacity="1" stroke-opacity="1"/><path d="M655,352L693,578L816,488Z" fill="#b8e9f4" stroke="#b8e9f4" fill-opacity="1" stroke-opacity="1"/><path d="M655,352L816,488L873,340Z" fill="#c6e3ef" stroke="#c6e3ef" fill-opacity="1" stroke-opacity="1"/><path d="M873,340L816,488L976,384Z" fill="#abcee4" stroke="#abcee4" fill-opacity="1" stroke-opacity="1"/><path d="M976,384L816,488L959,561Z" fill="#8bc1e0" stroke="#8bc1e0" fill-opacity="1" stroke-opacity="1"/><path d="M976,384L959,561L1068,480Z" fill="#80aed6" stroke="#80aed6" fill-opacity="1" stroke-opacity="1"/><path d="M976,384L1068,480L1144,428Z" fill="#8ba3ce" stroke="#8ba3ce" fill-opacity="1" stroke-opacity="1"/><path d="M1144,428L1068,480L1282,553Z" fill="#6d7fc0" stroke="#6d7fc0" fill-opacity="1" stroke-opacity="1"/><path d="M1144,428L1282,553L1238,318Z" fill="#7d80ba" stroke="#7d80ba" fill-opacity="1" stroke-opacity="1"/><path d="M1238,318L1282,553L1425,398Z" fill="#7980ae" stroke="#7980ae" fill-opacity="1" stroke-opacity="1"/><path d="M1425,398L1282,553L1472,505Z" fill="#5b78a3" stroke="#5b78a3" fill-opacity="1" stroke-opacity="1"/><path d="M-100,514L-90,1033L-68,722Z" fill="#54005c" stroke="#54005c" fill-opacity="1" stroke-opacity="1"/><path d="M-100,514L-68,722L49,520Z" fill="#7e5285" stroke="#7e5285" fill-opacity="1" stroke-opacity="1"/><path d="M49,520L-68,722L95,697Z" fill="#7b3a77" stroke="#7b3a77" fill-opacity="1" stroke-opacity="1"/><path d="M49,520L95,697L183,540Z" fill="#9c6785" stroke="#9c6785" fill-opacity="1" stroke-opacity="1"/><path d="M183,540L95,697L276,734Z" fill="#95587c" stroke="#95587c" fill-opacity="1" stroke-opacity="1"/><path d="M183,540L276,734L368,651Z" fill="#a0778a" stroke="#a0778a" fill-opacity="1" stroke-opacity="1"/><path d="M183,540L368,651L384,554Z" fill="#b19c9d" stroke="#b19c9d" fill-opacity="1" stroke-opacity="1"/><path d="M384,554L368,651L477,575Z" fill="#afafa9" stroke="#afafa9" fill-opacity="1" stroke-opacity="1"/><path d="M477,575L368,651L525,622Z" fill="#a8aead" stroke="#a8aead" fill-opacity="1" stroke-opacity="1"/><path d="M693,578L525,622L726,628Z" fill="#92bce6" stroke="#92bce6" fill-opacity="1" stroke-opacity="1"/><path d="M693,578L726,628L816,488Z" fill="#8dc4e9" stroke="#8dc4e9" fill-opacity="1" stroke-opacity="1"/><path d="M816,488L726,628L814,657Z" fill="#7ab2e0" stroke="#7ab2e0" fill-opacity="1" stroke-opacity="1"/><path d="M816,488L814,657L959,561Z" fill="#71addd" stroke="#71addd" fill-opacity="1" stroke-opacity="1"/><path d="M959,561L814,657L994,727Z" fill="#507ac3" stroke="#507ac3" fill-opacity="1" stroke-opacity="1"/><path d="M959,561L994,727L1067,728Z" fill="#3f5ab3" stroke="#3f5ab3" fill-opacity="1" stroke-opacity="1"/><path d="M959,561L1067,728L1068,480Z" fill="#4f7bc3" stroke="#4f7bc3" fill-opacity="1" stroke-opacity="1"/><path d="M1068,480L1067,728L1229,675Z" fill="#3d52af" stroke="#3d52af" fill-opacity="1" stroke-opacity="1"/><path d="M1068,480L1229,675L1282,553Z" fill="#4a5ab3" stroke="#4a5ab3" fill-opacity="1" stroke-opacity="1"/><path d="M1282,553L1229,675L1464,710Z" fill="#2a3591" stroke="#2a3591" fill-opacity="1" stroke-opacity="1"/><path d="M1282,553L1464,710L1472,505Z" fill="#325093" stroke="#325093" fill-opacity="1" stroke-opacity="1"/><path d="M1472,505L1464,710L1467,925Z" fill="#1a156e" stroke="#1a156e" fill-opacity="1" stroke-opacity="1"/><path d="M-68,722L-90,1033L-17,803Z" fill="#4a0045" stroke="#4a0045" fill-opacity="1" stroke-opacity="1"/><path d="M-68,722L-17,803L69,783Z" fill="#620059" stroke="#620059" fill-opacity="1" stroke-opacity="1"/><path d="M-68,722L69,783L95,697Z" fill="#6f1161" stroke="#6f1161" fill-opacity="1" stroke-opacity="1"/><path d="M95,697L69,783L241,819Z" fill="#7e1c5c" stroke="#7e1c5c" fill-opacity="1" stroke-opacity="1"/><path d="M95,697L241,819L276,734Z" fill="#892f68" stroke="#892f68" fill-opacity="1" stroke-opacity="1"/><path d="M276,734L241,819L341,842Z" fill="#884266" stroke="#884266" fill-opacity="1" stroke-opacity="1"/><path d="M276,734L341,842L368,651Z" fill="#925478" stroke="#925478" fill-opacity="1" stroke-opacity="1"/><path d="M368,651L341,842L520,869Z" fill="#8c617b" stroke="#8c617b" fill-opacity="1" stroke-opacity="1"/><path d="M368,651L520,869L525,622Z" fill="#988198" stroke="#988198" fill-opacity="1" stroke-opacity="1"/><path d="M525,622L520,869L697,838Z" fill="#8378b5" stroke="#8378b5" fill-opacity="1" stroke-opacity="1"/><path d="M525,622L697,838L726,628Z" fill="#8392d1" stroke="#8392d1" fill-opacity="1" stroke-opacity="1"/><path d="M726,628L697,838L814,657Z" fill="#6c81c8" stroke="#6c81c8" fill-opacity="1" stroke-opacity="1"/><path d="M814,657L697,838L825,818Z" fill="#5b64b5" stroke="#5b64b5" fill-opacity="1" stroke-opacity="1"/><path d="M814,657L825,818L994,727Z" fill="#4b5ab4" stroke="#4b5ab4" fill-opacity="1" stroke-opacity="1"/><path d="M994,727L825,818L963,848Z" fill="#37459f" stroke="#37459f" fill-opacity="1" stroke-opacity="1"/><path d="M994,727L963,848L1067,728Z" fill="#30319c" stroke="#30319c" fill-opacity="1" stroke-opacity="1"/><path d="M1067,728L963,848L1151,788Z" fill="#292490" stroke="#292490" fill-opacity="1" stroke-opacity="1"/><path d="M1067,728L1151,788L1229,675Z" fill="#2b1993" stroke="#2b1993" fill-opacity="1" stroke-opacity="1"/><path d="M1229,675L1151,788L1257,872Z" fill="#1e007f" stroke="#1e007f" fill-opacity="1" stroke-opacity="1"/><path d="M1229,675L1257,872L1428,859Z" fill="#13006e" stroke="#13006e" fill-opacity="1" stroke-opacity="1"/><path d="M1229,675L1428,859L1464,710Z" fill="#160472" stroke="#160472" fill-opacity="1" stroke-opacity="1"/><path d="M1464,710L1428,859L1467,925Z" fill="#070053" stroke="#070053" fill-opacity="1" stroke-opacity="1"/><path d="M-17,803L-90,1033L18,925Z" fill="#4d0034" stroke="#4d0034" fill-opacity="1" stroke-opacity="1"/><path d="M-17,803L18,925L69,783Z" fill="#5e0549" stroke="#5e0549" fill-opacity="1" stroke-opacity="1"/><path d="M69,783L18,925L222,952Z" fill="#68153d" stroke="#68153d" fill-opacity="1" stroke-opacity="1"/><path d="M69,783L222,952L241,819Z" fill="#76264c" stroke="#76264c" fill-opacity="1" stroke-opacity="1"/><path d="M241,819L222,952L341,842Z" fill="#7c3d52" stroke="#7c3d52" fill-opacity="1" stroke-opacity="1"/><path d="M341,842L222,952L421,1013Z" fill="#7d4d4a" stroke="#7d4d4a" fill-opacity="1" stroke-opacity="1"/><path d="M341,842L421,1013L520,869Z" fill="#7f6461" stroke="#7f6461" fill-opacity="1" stroke-opacity="1"/><path d="M520,869L421,1013L580,1011Z" fill="#7d7268" stroke="#7d7268" fill-opacity="1" stroke-opacity="1"/><path d="M520,869L580,1011L648,962Z" fill="#73788c" stroke="#73788c" fill-opacity="1" stroke-opacity="1"/><path d="M520,869L648,962L697,838Z" fill="#6d78a4" stroke="#6d78a4" fill-opacity="1" stroke-opacity="1"/><path d="M697,838L648,962L799,946Z" fill="#596e98" stroke="#596e98" fill-opacity="1" stroke-opacity="1"/><path d="M697,838L799,946L825,818Z" fill="#4d659e" stroke="#4d659e" fill-opacity="1" stroke-opacity="1"/><path d="M825,818L799,946L967,936Z" fill="#38548d" stroke="#38548d" fill-opacity="1" stroke-opacity="1"/><path d="M825,818L967,936L963,848Z" fill="#2e478f" stroke="#2e478f" fill-opacity="1" stroke-opacity="1"/><path d="M963,848L967,936L1107,1002Z" fill="#1f3074" stroke="#1f3074" fill-opacity="1" stroke-opacity="1"/><path d="M963,848L1107,1002L1151,788Z" fill="#1a2078" stroke="#1a2078" fill-opacity="1" stroke-opacity="1"/><path d="M1151,788L1107,1002L1257,872Z" fill="#12076a" stroke="#12076a" fill-opacity="1" stroke-opacity="1"/><path d="M1257,872L1107,1002L1259,994Z" fill="#0f0055" stroke="#0f0055" fill-opacity="1" stroke-opacity="1"/><path d="M1257,872L1259,994L1428,859Z" fill="#070053" stroke="#070053" fill-opacity="1" stroke-opacity="1"/><path d="M1428,859L1259,994L1467,925Z" fill="#010046" stroke="#010046" fill-opacity="1" stroke-opacity="1"/><path d="M-90,1033L1107,1002L580,1011Z" fill="#7a7467" stroke="#7a7467" fill-opacity="1" stroke-opacity="1"/><path d="M-90,1033L580,1011L421,1013Z" fill="#7c4733" stroke="#7c4733" fill-opacity="1" stroke-opacity="1"/><path d="M-90,1033L421,1013L222,952Z" fill="#732829" stroke="#732829" fill-opacity="1" stroke-opacity="1"/><path d="M-90,1033L222,952L18,925Z" fill="#5d0a28" stroke="#5d0a28" fill-opacity="1" stroke-opacity="1"/><path d="M580,1011L1107,1002L799,946Z" fill="#3f5b7c" stroke="#3f5b7c" fill-opacity="1" stroke-opacity="1"/><path d="M580,1011L799,946L648,962Z" fill="#61728d" stroke="#61728d" fill-opacity="1" stroke-opacity="1"/><path d="M799,946L1107,1002L967,936Z" fill="#263e73" stroke="#263e73" fill-opacity="1" stroke-opacity="1"/></g><filter id="noise"><feTurbulence type="fractalNoise" in="fillPaint" fill="#F00" baseFrequency="0.7" numOctaves="10" stitchTiles="stitch"/><feComponentTransfer><feFuncR type="linear" slope="2" intercept="-.5"/><feFuncG type="linear" slope="2" intercept="-.5"/><feFuncB type="linear" slope="2" intercept="-.5"/></feComponentTransfer><feColorMatrix type="matrix" values="0.3333 0.3333 0.3333 0 0
 0.3333 0.3333 0.3333 0 0
 0.3333 0.3333 0.3333 0 0
 0 0 0 1 0"/></filter><rect opacity="0.3" width="100%" height="100%" filter="url(#noise)"/></svg>
